<?xml version="1.0" encoding="UTF-8"?>
<svg width="954px" height="633px" viewBox="0 0 954 633" version="1.1" xmlns="http://www.w3.org/2000/svg" xmlns:xlink="http://www.w3.org/1999/xlink">
    <title>88C8C58D-9174-4CE5-BC09-F99882E5319A@3x</title>
    <defs>
        <rect id="path-1" x="0" y="0" width="954" height="633"></rect>
        <path d="M224.104541,16.8773977 C201.868216,39.0568378 201.868216,75.0064517 224.104541,97.1774826 L224.104541,97.1774826 C258.847568,131.834873 258.847568,188.219004 224.104541,222.866583 L224.104541,222.866583 C189.361514,257.515564 132.816432,257.515564 98.072,222.866583 L98.072,222.866583 C75.8314595,200.706764 39.7828108,200.696954 17.5521081,222.877795 L17.5521081,222.877795 C-4.68421622,245.047425 -4.68421622,280.997039 17.5521081,303.176479 L17.5521081,303.176479 C57.1255135,342.63556 109.105838,362.367903 161.086162,362.367903 L161.086162,362.367903 C213.067892,362.367903 265.052432,342.627151 304.625838,303.166668 L304.625838,303.166668 C383.768432,224.237293 383.768432,95.8179846 304.625838,16.8872085 L304.625838,16.8872085 C293.509081,5.7953861 278.936432,0.250876448 264.363784,0.250876448 L264.363784,0.250876448 C249.793946,0.250876448 235.222703,5.79258301 224.104541,16.8773977 L224.104541,16.8773977 Z" id="path-3"></path>
        <path d="M224.104541,16.8773977 C201.868216,39.0568378 201.868216,75.0064517 224.104541,97.1774826 L224.104541,97.1774826 C258.847568,131.834873 258.847568,188.219004 224.104541,222.866583 L224.104541,222.866583 C189.361514,257.515564 132.816432,257.515564 98.072,222.866583 L98.072,222.866583 C75.8314595,200.706764 39.7828108,200.696954 17.5521081,222.877795 L17.5521081,222.877795 C-4.68421622,245.047425 -4.68421622,280.997039 17.5521081,303.176479 L17.5521081,303.176479 C57.1255135,342.63556 109.105838,362.367903 161.086162,362.367903 L161.086162,362.367903 C213.067892,362.367903 265.052432,342.627151 304.625838,303.166668 L304.625838,303.166668 C383.768432,224.237293 383.768432,95.8179846 304.625838,16.8872085 L304.625838,16.8872085 C293.509081,5.7953861 278.936432,0.250876448 264.363784,0.250876448 L264.363784,0.250876448 C249.793946,0.250876448 235.222703,5.79258301 224.104541,16.8773977 L224.104541,16.8773977 Z" id="path-5"></path>
        <path d="M224.104541,16.8773977 C201.868216,39.0568378 201.868216,75.0064517 224.104541,97.1774826 L224.104541,97.1774826 C258.847568,131.834873 258.847568,188.219004 224.104541,222.866583 L224.104541,222.866583 C189.361514,257.515564 132.816432,257.515564 98.072,222.866583 L98.072,222.866583 C75.8314595,200.706764 39.7828108,200.696954 17.5521081,222.877795 L17.5521081,222.877795 C-4.68421622,245.047425 -4.68421622,280.997039 17.5521081,303.176479 L17.5521081,303.176479 C57.1255135,342.63556 109.105838,362.367903 161.086162,362.367903 L161.086162,362.367903 C213.067892,362.367903 265.052432,342.627151 304.625838,303.166668 L304.625838,303.166668 C383.768432,224.237293 383.768432,95.8179846 304.625838,16.8872085 L304.625838,16.8872085 C293.509081,5.7953861 278.936432,0.250876448 264.363784,0.250876448 L264.363784,0.250876448 C249.793946,0.250876448 235.222703,5.79258301 224.104541,16.8773977 L224.104541,16.8773977 Z" id="path-7"></path>
        <path d="M224.104541,16.8773977 C201.868216,39.0568378 201.868216,75.0064517 224.104541,97.1774826 L224.104541,97.1774826 C258.847568,131.834873 258.847568,188.219004 224.104541,222.866583 L224.104541,222.866583 C189.361514,257.515564 132.816432,257.515564 98.072,222.866583 L98.072,222.866583 C75.8314595,200.706764 39.7828108,200.696954 17.5521081,222.877795 L17.5521081,222.877795 C-4.68421622,245.047425 -4.68421622,280.997039 17.5521081,303.176479 L17.5521081,303.176479 C57.1255135,342.63556 109.105838,362.367903 161.086162,362.367903 L161.086162,362.367903 C213.067892,362.367903 265.052432,342.627151 304.625838,303.166668 L304.625838,303.166668 C383.768432,224.237293 383.768432,95.8179846 304.625838,16.8872085 L304.625838,16.8872085 C293.509081,5.7953861 278.936432,0.250876448 264.363784,0.250876448 L264.363784,0.250876448 C249.793946,0.250876448 235.222703,5.79258301 224.104541,16.8773977 L224.104541,16.8773977 Z" id="path-9"></path>
        <path d="M224.104541,16.8773977 C201.868216,39.0568378 201.868216,75.0064517 224.104541,97.1774826 L224.104541,97.1774826 C258.847568,131.834873 258.847568,188.219004 224.104541,222.866583 L224.104541,222.866583 C189.361514,257.515564 132.816432,257.515564 98.072,222.866583 L98.072,222.866583 C75.8314595,200.706764 39.7828108,200.696954 17.5521081,222.877795 L17.5521081,222.877795 C-4.68421622,245.047425 -4.68421622,280.997039 17.5521081,303.176479 L17.5521081,303.176479 C57.1255135,342.63556 109.105838,362.367903 161.086162,362.367903 L161.086162,362.367903 C213.067892,362.367903 265.052432,342.627151 304.625838,303.166668 L304.625838,303.166668 C383.768432,224.237293 383.768432,95.8179846 304.625838,16.8872085 L304.625838,16.8872085 C293.509081,5.7953861 278.936432,0.250876448 264.363784,0.250876448 L264.363784,0.250876448 C249.793946,0.250876448 235.222703,5.79258301 224.104541,16.8773977 L224.104541,16.8773977 Z" id="path-11"></path>
        <path d="M224.104541,16.8773977 C201.868216,39.0568378 201.868216,75.0064517 224.104541,97.1774826 L224.104541,97.1774826 C258.847568,131.834873 258.847568,188.219004 224.104541,222.866583 L224.104541,222.866583 C189.361514,257.515564 132.816432,257.515564 98.072,222.866583 L98.072,222.866583 C75.8314595,200.706764 39.7828108,200.696954 17.5521081,222.877795 L17.5521081,222.877795 C-4.68421622,245.047425 -4.68421622,280.997039 17.5521081,303.176479 L17.5521081,303.176479 C57.1255135,342.63556 109.105838,362.367903 161.086162,362.367903 L161.086162,362.367903 C213.067892,362.367903 265.052432,342.627151 304.625838,303.166668 L304.625838,303.166668 C383.768432,224.237293 383.768432,95.8179846 304.625838,16.8872085 L304.625838,16.8872085 C293.509081,5.7953861 278.936432,0.250876448 264.363784,0.250876448 L264.363784,0.250876448 C249.793946,0.250876448 235.222703,5.79258301 224.104541,16.8773977 L224.104541,16.8773977 Z" id="path-13"></path>
        <path d="M224.104541,16.8773977 C201.868216,39.0568378 201.868216,75.0064517 224.104541,97.1774826 L224.104541,97.1774826 C258.847568,131.834873 258.847568,188.219004 224.104541,222.866583 L224.104541,222.866583 C189.361514,257.515564 132.816432,257.515564 98.072,222.866583 L98.072,222.866583 C75.8314595,200.706764 39.7828108,200.696954 17.5521081,222.877795 L17.5521081,222.877795 C-4.68421622,245.047425 -4.68421622,280.997039 17.5521081,303.176479 L17.5521081,303.176479 C57.1255135,342.63556 109.105838,362.367903 161.086162,362.367903 L161.086162,362.367903 C213.067892,362.367903 265.052432,342.627151 304.625838,303.166668 L304.625838,303.166668 C383.768432,224.237293 383.768432,95.8179846 304.625838,16.8872085 L304.625838,16.8872085 C293.509081,5.7953861 278.936432,0.250876448 264.363784,0.250876448 L264.363784,0.250876448 C249.793946,0.250876448 235.222703,5.79258301 224.104541,16.8773977" id="path-15"></path>
        <polygon id="path-17" points="0.833419865 0.105410389 364.044262 0.105410389 364.044262 346.188352 0.833419865 346.188352"></polygon>
        <polygon id="path-19" points="0 822.509829 712.59085 822.509829 712.59085 0.279316478 0 0.279316478"></polygon>
    </defs>
    <g id="Page1" stroke="none" stroke-width="1" fill="none" fill-rule="evenodd">
        <g id="Illustrations-1920" transform="translate(0.000000, -1647.000000)">
            <g id="Group-44-Copy" transform="translate(0.000000, 1647.000000)">
                <mask id="mask-2" fill="white">
                    <use xlink:href="#path-1"></use>
                </mask>
                <use id="Mask" fill-opacity="0" fill="#D8D8D8" xlink:href="#path-1"></use>
                <g id="Group-44" mask="url(#mask-2)">
                    <g transform="translate(240.000000, -137.000000)">
                        <path d="M303.163681,710 C251.198806,710 199.23393,690.275406 159.672287,650.82902 C137.442571,628.655314 137.442571,592.717266 159.672287,570.554769 C181.896382,548.381064 217.935722,548.390871 240.169652,570.544962 C274.902353,605.181394 331.430629,605.181394 366.16333,570.544962 C400.897436,535.907128 400.897436,479.542538 366.16333,444.894897 C343.935019,422.7324 343.935019,386.792951 366.16333,364.620647 C388.39726,342.45815 424.435195,342.45815 446.660695,364.630455 C525.779768,443.534436 525.779768,571.91383 446.660695,650.819212 C407.099052,690.265598 355.128556,710 303.163681,710" id="Fill-1" fill="#000000"></path>
                        <g id="Group-24" stroke-width="1" fill="none" transform="translate(142.000000, 348.000000)">
                            <g id="Group-5">
                                <mask id="mask-4" fill="white">
                                    <use xlink:href="#path-3"></use>
                                </mask>
                                <g id="Clip-4"></g>
                                <path d="M483.7508,433.441061 L465.477719,325.253046 C463.33307,312.543841 453.436205,267.355246 416.146584,219.585007 C384.673935,179.265378 324.795232,126.200103 218.262692,102.365439 C192.276746,96.5518332 183.477503,87.0395514 181.238692,83.9757753 L164.917719,3.65887181 L145.697395,7.37296448 L142.240097,-12.3986224 L-96.1700649,29.0520533 L-77.284227,137.119536 C-75.1156865,149.521802 -65.3509297,193.629806 -30.6950378,240.616582 C-0.116227027,282.072864 57.8708,336.309829 160.469611,359.262922 C191.819989,366.279053 203.817935,376.49491 207.425611,380.399613 L223.414908,457.149586 L241.755449,453.757849 L245.08907,473.508412 L483.7508,433.441061 Z" id="Stroke-3" stroke="#FFFFFF" stroke-width="2" mask="url(#mask-4)"></path>
                            </g>
                            <g id="Group-8">
                                <mask id="mask-6" fill="white">
                                    <use xlink:href="#path-5"></use>
                                </mask>
                                <g id="Clip-7"></g>
                                <path d="M458.401362,415.448174 L443.782335,328.897201 C441.854119,317.467607 432.905903,276.772363 398.78547,233.062398 C369.52493,195.576692 313.617903,146.186267 213.447632,123.775572 C171.146335,114.309541 161.652822,94.8182629 160.31347,91.4713749 L147.687308,29.3381085 L127.873903,33.1685293 L124.34493,12.9848884 L-70.7197189,46.8980583 L-55.6102054,133.353726 C-53.6510703,144.561877 -44.785773,184.482066 -12.9716108,227.615997 C15.3824432,266.057556 69.3247135,316.385614 165.284389,337.854471 C213.703416,348.68841 226.034443,367.726989 228.039957,371.492939 L240.576173,431.66124 L259.73747,428.119537 L263.13293,448.230298 L458.401362,415.448174 Z" id="Stroke-6" stroke="#FFFFFF" stroke-width="2" mask="url(#mask-6)"></path>
                            </g>
                            <g id="Group-11">
                                <mask id="mask-8" fill="white">
                                    <use xlink:href="#path-7"></use>
                                </mask>
                                <g id="Clip-10"></g>
                                <path d="M433.051222,397.454026 L422.087654,332.541497 C420.374465,322.391512 412.377708,286.191022 381.425059,246.539929 C354.373816,211.885342 302.437059,166.171169 208.630465,145.184443 C150.005384,132.065987 139.806357,99.9636127 139.010897,97.1128714 L130.4576,55.0188869 L110.049708,58.9628328 L106.449059,38.3671378 L-45.2672649,64.7442035 L-33.9354811,129.586655 C-32.1843459,139.603493 -24.2199135,175.335868 4.75111351,214.615551 C30.8804108,250.040987 80.7779243,296.462941 170.101276,316.446161 C236.281816,331.256281 248.046465,361.629149 249.159546,365.00547 L257.736735,406.174435 L277.720195,402.478563 L281.176086,422.950922 L433.051222,397.454026 Z" id="Stroke-9" stroke="#FFFFFF" stroke-width="2" mask="url(#mask-8)"></path>
                            </g>
                            <g id="Group-14">
                                <mask id="mask-10" fill="white">
                                    <use xlink:href="#path-9"></use>
                                </mask>
                                <g id="Clip-13"></g>
                                <path d="M407.701784,379.459737 L400.39227,336.184251 C398.894108,327.313876 391.847405,295.609541 364.063946,260.015919 C339.224811,228.195255 291.25973,186.155931 203.815405,166.591772 C128.991622,149.848923 117.973243,103.869857 117.540378,101.923112 L113.227189,80.6981236 L92.2262162,84.7583977 L88.5538919,63.7506486 L-19.8155135,82.59161 L-12.2614595,125.819444 C-11.1624324,132.105371 -4.32513514,165.281328 22.4745405,201.614965 C46.3790811,234.022876 92.2304324,276.538726 174.917459,295.039112 C258.047189,313.640409 269.929892,357.285903 270.544054,359.789062 L274.898,380.68749 L295.703622,376.840251 L299.219946,397.672807 L407.701784,379.459737 Z" id="Stroke-12" stroke="#FFFFFF" stroke-width="2" mask="url(#mask-10)"></path>
                            </g>
                            <g id="Group-17">
                                <mask id="mask-12" fill="white">
                                    <use xlink:href="#path-11"></use>
                                </mask>
                                <g id="Clip-16"></g>
                                <path d="M382.351643,361.466851 L378.696184,339.829808 C377.784076,334.426854 371.955859,305.842356 346.703535,273.49331 C324.075103,244.506569 280.081697,206.142094 198.998238,187.999102 C109.487968,167.971032 96.5076432,108.883322 95.9988865,106.378762 L74.3851568,110.453051 L70.6580216,89.1327579 L5.63553514,100.437615 L9.41326486,122.053634 C9.9951027,125.382302 15.8050486,155.544939 40.1972649,188.615781 C61.8784541,218.00897 103.683643,256.615912 179.734346,273.630661 C278.58213,295.748434 291.555427,352.782881 292.058562,355.199144 L313.684941,351.201939 L317.263103,372.393291 L382.351643,361.466851 Z" id="Stroke-15" stroke="#FFFFFF" stroke-width="2" mask="url(#mask-12)"></path>
                            </g>
                            <g id="Group-20">
                                <mask id="mask-14" fill="white">
                                    <use xlink:href="#path-13"></use>
                                </mask>
                                <g id="Clip-19"></g>
                                <path d="M313.651492,350.99367 L313.610735,350.756809 L357.001222,343.472983 C356.302735,339.330017 338.216573,241.635365 194.182195,209.408253 C90.1189514,186.122994 74.9953838,113.639322 74.4023027,110.565736 L74.4360324,110.747936 L31.0877081,118.285442 C31.8283568,122.516705 50.7479243,222.287044 184.549546,252.222631 C298.315708,277.677481 313.079492,348.012585 313.651492,350.99367 Z" id="Stroke-18" stroke="#FFFFFF" stroke-width="2" mask="url(#mask-14)"></path>
                            </g>
                            <g id="Group-23">
                                <mask id="mask-16" fill="white">
                                    <use xlink:href="#path-15"></use>
                                </mask>
                                <g id="Clip-22"></g>
                                <path d="M335.306259,347.114756 C335.306259,347.114756 320.631016,260.186767 189.366151,230.816003 C68.3607459,203.740968 52.7607459,114.51725 52.7607459,114.51725" id="Stroke-21" stroke="#FFFFFF" stroke-width="2" mask="url(#mask-16)"></path>
                            </g>
                        </g>
                        <g id="Group-43" stroke-width="1" fill="none">
                            <path d="M406.317904,460.668666 C391.745002,460.668666 377.177723,455.11462 366.057962,444.019158 C327.715026,405.726133 306.601255,354.813336 306.601255,300.663836 C306.601255,246.51574 327.715026,195.600136 366.057962,157.308514 C404.398087,119.018295 455.374431,97.9348137 509.598723,97.9348137 C563.817393,97.9348137 614.793737,119.018295 653.135267,157.319743 C675.370572,179.52049 675.370572,215.524244 653.135267,237.73622 C630.884503,259.920124 594.835229,259.928546 572.612573,237.726395 C555.778335,220.914069 533.401082,211.661535 509.598723,211.661535 C485.790742,211.661535 463.414894,220.914069 446.579251,237.726395 C429.743608,254.540124 420.474798,276.886846 420.474798,300.663836 C420.474798,324.439423 429.743608,346.787549 446.579251,363.591452 C468.815961,385.803429 468.815961,421.807182 446.579251,444.009333 C435.463707,455.11462 420.890805,460.668666 406.317904,460.668666" id="Fill-25" fill="#268D42"></path>
                            <g id="Group-29" transform="translate(348.546588, 157.203244)">
                                <mask id="mask-18" fill="white">
                                    <use xlink:href="#path-17"></use>
                                </mask>
                                <g id="Clip-28"></g>
                                <path d="M304.588258,0.105410389 C342.929788,38.3970327 364.044965,89.3126368 364.044965,143.460733 C364.044965,197.610232 342.929788,248.523029 304.588258,286.816055 C266.246728,325.107677 215.271789,346.188352 161.047497,346.188352 C106.827421,346.188352 55.8524826,325.107677 17.5109525,286.80623 C-4.72575767,264.602675 -4.72575767,228.600325 17.5109525,206.388349 C39.7518789,184.184794 75.801153,184.184794 98.0322414,206.398174 C114.867885,223.211903 137.245138,232.463034 161.047497,232.463034 C184.855478,232.463034 207.231325,223.211903 224.066969,206.398174 C240.902612,189.584445 250.170016,167.23632 250.170016,143.460733 C250.170016,119.683742 240.902612,97.3356167 224.066969,80.5331164 L304.588258,0.105410389 Z" id="Fill-27" fill="#86E0B1" mask="url(#mask-18)"></path>
                            </g>
                            <path d="M159.500962,650.301255 C80.3569942,571.256095 80.3569942,442.646999 159.500962,363.600436 C238.649146,284.565101 367.430083,284.555276 446.579673,363.59061 C468.814977,385.80399 468.814977,421.80634 446.579673,444.008491 C424.347179,466.221871 388.297905,466.212046 366.056978,444.018316 C331.307727,409.300261 274.76307,409.310086 240.022251,444.018316 C205.278621,478.718125 205.278621,535.183565 240.022251,569.893199 L159.500962,650.301255 Z" id="Fill-30" fill="#86E0B1"></path>
                            <mask id="mask-20" fill="white">
                                <use xlink:href="#path-19"></use>
                            </mask>
                            <g id="Clip-33"></g>
                            <polygon id="Fill-36" fill="#268D42" mask="url(#mask-20)" points="531.355057 518.986859 596.412402 518.986859 596.412402 473.216854 531.355057 473.216854"></polygon>
                            <polygon id="Fill-37" fill="#000000" mask="url(#mask-20)" points="164.865347 356.74469 229.922692 356.74469 229.922692 310.974685 164.865347 310.974685"></polygon>
                            <polygon id="Fill-38" fill="#268D42" mask="url(#mask-20)" points="93.8672502 429.932625 158.924595 429.932625 158.924595 384.16262 93.8672502 384.16262"></polygon>
                            <polygon id="Fill-40" fill="#86E0B1" mask="url(#mask-20)" points="71.0753953 356.74469 136.13274 356.74469 136.13274 310.974685 71.0753953 310.974685"></polygon>
                            <polygon id="Fill-41" fill="#000000" mask="url(#mask-20)" points="68.3095095 509.515364 133.366854 509.515364 133.366854 463.745358 68.3095095 463.745358"></polygon>
                            <polygon id="Fill-42" fill="#86E0B1" mask="url(#mask-20)" points="-0.00140542979 589.096699 65.0559396 589.096699 65.0559396 543.326693 -0.00140542979 543.326693"></polygon>
                        </g>
                    </g>
                </g>
            </g>
        </g>
    </g>
</svg>